<svg width="30" height="30" viewBox="0 0 30 30" fill="none" xmlns="http://www.w3.org/2000/svg">
<g clip-path="url(#clip0_9_45)">
<rect width="30" height="30" fill="#8C58B1"/>
<path d="M19.8028 6.44366C16.1896 6.41628 13.1103 5.94667 9.15363 9.61788C6.56232 12.0222 4.71921 19.7185 9.15363 20.2934C13.5881 20.8682 13.0105 15.9411 17.8583 15.9411C20.2401 15.9411 23.5504 19.3576 23.196 21.7715C22.6706 25.3501 15.4869 29.655 6.95657 29.655C5.2107 29.655 -1.6861 28.0126 -2.42517 29.655" stroke="#4F3065" stroke-width="5"/>
<circle cx="19.5383" cy="6.41018" r="3.68396" fill="black"/>
<rect x="16.9465" y="3.27696" width="5.18372" height="0.523933" rx="0.261967" fill="black"/>
<rect x="16.8829" y="8.9937" width="5.18372" height="0.523933" rx="0.261967" fill="black"/>
<circle cx="19.5478" cy="6.41018" r="2.87125" fill="#676767"/>
<path d="M17.494 6.70564C17.5511 7.10081 17.7221 7.47073 17.9852 7.77107C18.2484 8.07148 18.593 8.28947 18.9774 8.39803L18.907 8.64412C18.4752 8.52208 18.0875 8.2775 17.7918 7.94002C17.4962 7.60248 17.3042 7.18585 17.2401 6.74178L17.494 6.70564Z" fill="#FF0000"/>
<mask id="path-7-inside-1_9_45" fill="white">
<path d="M21.2442 7.98489C21.5487 7.65502 21.7511 7.24394 21.8267 6.80143C21.9024 6.35893 21.8481 5.90398 21.6705 5.49169L21.4356 5.59285C21.5937 5.95974 21.642 6.36458 21.5747 6.75834C21.5073 7.15211 21.3273 7.51791 21.0563 7.81145L21.2442 7.98489Z"/>
</mask>
<path d="M21.2442 7.98489C21.5487 7.65502 21.7511 7.24394 21.8267 6.80143C21.9024 6.35893 21.8481 5.90398 21.6705 5.49169L21.4356 5.59285C21.5937 5.95974 21.642 6.36458 21.5747 6.75834C21.5073 7.15211 21.3273 7.51791 21.0563 7.81145L21.2442 7.98489Z" stroke="#FF0000" mask="url(#path-7-inside-1_9_45)"/>
<mask id="path-8-inside-2_9_45" fill="white">
<path d="M20.0587 4.14766C19.6212 4.04704 19.1639 4.07543 18.7422 4.22938C18.3205 4.38333 17.9524 4.65624 17.6827 5.01506L17.8871 5.16873C18.1271 4.84942 18.4546 4.60657 18.8299 4.46958C19.2051 4.33258 19.612 4.30732 20.0014 4.39686L20.0587 4.14766Z"/>
</mask>
<path d="M20.0587 4.14766C19.6212 4.04704 19.1639 4.07543 18.7422 4.22938C18.3205 4.38333 17.9524 4.65624 17.6827 5.01506L17.8871 5.16873C18.1271 4.84942 18.4546 4.60657 18.8299 4.46958C19.2051 4.33258 19.612 4.30732 20.0014 4.39686L20.0587 4.14766Z" stroke="#FF0000" mask="url(#path-8-inside-2_9_45)"/>
<circle cx="19.5477" cy="6.41019" r="0.635757" fill="#403E3E"/>
</g>
<defs>
<clipPath id="clip0_9_45">
<rect width="30" height="30" fill="white"/>
</clipPath>
</defs>
</svg>
